<svg height="168" viewBox="0 0 196 168" width="196" xmlns="http://www.w3.org/2000/svg"><g fill="none" fill-rule="evenodd" transform="translate(2 2)"><g fill="#cf0a2c"><path d="m19.766 144.545c-2.266 0-2.238 1.104-2.238 4.561v8.152c0 3.85-2.405 6.742-7.388 6.742-4.675 0-7.478-2.269-7.564-7.08v-10.338c0-1.98-1.074-2.011-2.576-2.037v-.738c1.33.031 2.635.06 3.908.06 1.301 0 2.604-.029 4.021-.06v.738c-1.501.026-2.576.057-2.576 2.037v9.627c0 3.367 1.104 6.627 5.52 6.627 4.701 0 5.156-3.623 5.156-5.578v-8.068c0-4.645-.17-4.561-2.691-4.645v-.738c1.19.031 2.377.06 3.568.06.964 0 1.897-.06 2.86-.06z"/><path d="m43.439 163.824h-.648l-14.812-16.25v10.561c0 3.91.313 4.701 3.373 4.701v.736c-1.249 0-2.526-.056-3.768-.056-1.247 0-2.524.027-3.766.056v-.736c1.725 0 3.028 0 3.028-3.596v-11.384c0-2.436-1.047-3.311-3.481-3.311v-.738c.875.031 1.727.06 2.603.06.764 0 1.559-.06 2.324-.06 1.159 1.728 3.792 4.305 7.02 7.873 2.407 2.66 5.069 5.461 6.995 7.56v-11.271c0-2.604-.597-3.398-3.423-3.424v-.738c1.3.031 2.628.06 3.931.06 1.107 0 2.18-.06 3.287-.06v.738c-1.728 0-2.663.141-2.663 2.92z"/><path d="m52.344 146.582c0-1.98-1.075-2.011-2.577-2.037v-.738c1.329.031 2.633.06 3.908.06 1.302 0 2.605-.029 4.018-.06v.738c-1.5.026-2.575.057-2.575 2.037v14.213c0 1.981 1.075 2.014 2.575 2.041v.736c-1.356 0-2.575-.056-3.822-.056-1.36 0-2.689.027-4.104.056v-.736c1.502-.027 2.577-.06 2.577-2.041z"/><path d="m66.105 152.272c-.707-1.811-1.53-3.649-2.176-5.492-.654-1.698-1.109-2.235-2.978-2.235v-.738c1.333.031 2.664.06 3.994.06 1.191 0 2.407-.06 3.597-.06v.738c-.428.026-.821.026-1.216.084-.398.026-.741.252-.741.676 0 .939 1.501 4.365 1.812 5.185l3.767 9.684 2.151-5.605c.685-1.84 1.472-3.653 2.069-5.493.286-.904.876-2.296.876-3.23 0-1.328-1.13-1.244-2.15-1.301v-.738c1.103.031 2.238.06 3.341.06.877 0 1.758-.029 2.635-.06v.738c-.965 0-1.5.424-1.898 1.104-.17.314-2.094 5.211-2.152 5.353l-5.182 12.998h-1.047z"/><path d="m89.708 152.756h3.74c2.292 0 2.292-1.785 2.376-2.435h.567c-.055.619-.113 2.148-.113 3.171 0 .905.142 2.235.113 3.143h-.567c0-2.719-.906-2.719-3.088-2.719h-3.028v4.815c0 3.142.114 3.939 2.916 3.939h1.756c2.774-.146 4.021-.515 5.123-3.541l.685.111c-.454 1.415-.881 2.858-1.163 4.332-2.832 0-5.665-.056-8.495-.056-2.098 0-4.192 0-6.289.056v-.736c2.465 0 2.694-.455 2.694-3.201v-12.572c0-2.321-.453-2.434-2.694-2.516v-.74c1.902.06 3.824.06 5.723.06 2.718 0 5.409 0 8.156-.06v4.221l-.565.144c-.43-2.668-1.702-3.459-4.534-3.459h-3.313z"/><path d="m109.628 144.713c-.709 0-1.192.084-1.702.168v8.301c.422.082 1.021.139 1.504.139 3.482 0 4.839-2.291 4.839-4.332 0-2.463-1.3-4.276-4.641-4.276m-1.702 9.516v6.566c0 1.981 1.081 2.014 2.578 2.041v.736c-1.359 0-2.578-.056-3.82-.056-1.363 0-2.693.027-4.108.056v-.736c1.415.086 2.575-.283 2.575-1.894v-14.36c0-1.98-1.075-2.011-2.575-2.037v-.738c1.556.031 2.916.06 4.301.06.993 0 1.986-.06 3.8-.06 5.35 0 6.538 3.006 6.538 5.014 0 2.404-1.813 4.187-4.018 4.841 2.573 3.764 3.931 6.035 5.153 7.391.902 1.021 1.754 1.783 3.196 1.783v.736c-.703 0-1.411-.056-2.121-.056-.792 0-1.616.027-2.407.056-2.579-2.832-4.473-6.146-6.514-9.343z"/><path d="m123.438 158.901h.654c.477 2.127 2.062 4.191 4.415 4.191 2.177 0 3.878-1.531 3.878-3.766 0-5.267-8.383-3.711-8.383-10.396 0-3.65 2.605-5.545 6.061-5.545 1.16 0 2.322.252 3.454.422l.454 3.627h-.653c-.311-1.985-1.612-3.149-3.651-3.149-2.153 0-3.401 1.561-3.401 3.627 0 5.272 8.724 3.823 8.724 10.336 0 3.68-3.314 5.752-6.656 5.752-1.474 0-3-.345-4.332-.967z"/><path d="m140.779 146.582c0-1.98-1.078-2.011-2.578-2.037v-.738c1.327.031 2.631.06 3.904.06 1.305 0 2.609-.029 4.024-.06v.738c-1.503.026-2.578.057-2.578 2.037v14.213c0 1.981 1.075 2.014 2.578 2.041v.736c-1.357 0-2.578-.056-3.824-.056-1.362 0-2.689.027-4.104.056v-.736c1.5-.027 2.578-.06 2.578-2.041z"/><path d="m167.349 147.514h-.765c-.085-1.527 0-2.543-2.264-2.543h-4.307v15.824c0 1.981 1.081 2.014 2.578 2.041v.736c-1.357 0-2.578-.056-3.823-.056-1.357 0-2.688.027-4.105.056v-.736c1.503-.027 2.577-.06 2.577-2.041v-15.824h-3.708c-2.548 0-2.663.711-3.143 2.543h-.735l.309-4.496h.568c.309.763 1.073.789 1.782.789h12.856c1.019 0 1.726-.252 1.845-.789h.588z"/><path d="m182.316 160.795c0 1.981 1.076 2.014 2.576 2.041v.736c-1.413-.029-2.719-.056-4.019-.056-1.273 0-2.576.027-3.909.056v-.736c1.503-.027 2.578-.06 2.578-2.041v-6.849l-5.917-8.159c-.822-1.158-.965-1.101-2.635-1.242v-.738c.537.031 2.635.06 3.935.06 1.165 0 2.292-.06 3.457-.06v.738c-.456 0-1.587 0-1.587.594 0 .34.397.99.932 1.758l3.966 5.572 3.711-5.063c.337-.482 1.105-1.39 1.105-2.041 0-.82-.566-.82-2.01-.82v-.738c1.073.031 2.177.06 3.253.06.767 0 1.531-.06 2.324-.06v.738c-1.189.026-1.727.791-2.351 1.641l-5.409 7.306z"/><path d="m.646 120.91h1.061c.783 3.457 3.363 6.821 7.189 6.821 3.548 0 6.313-2.489 6.313-6.129 0-8.571-13.641-6.035-13.641-16.91 0-5.948 4.239-9.034 9.862-9.034 1.89 0 3.779.415 5.624.692l.736 5.898h-1.061c-.506-3.226-2.625-5.115-5.944-5.115-3.502 0-5.529 2.533-5.529 5.897 0 8.572 14.191 6.222 14.191 16.82 0 5.994-5.39 9.357-10.83 9.357-2.393 0-4.882-.554-7.049-1.568z"/><path d="m24.715 104.707c-2.756 0-2.867.664-3.417 3.344h-1.103c.147-1.027.331-2.057.443-3.125.145-1.027.219-2.057.219-3.121h.883c.292 1.103 1.211 1.064 2.205 1.064h18.957c.992 0 1.909-.035 1.984-1.136l.882.146c-.148.99-.295 1.983-.405 2.977-.075.99-.075 1.982-.075 2.976l-1.103.405c-.072-1.364-.253-3.53-2.717-3.53h-6.025v19.545c0 2.83 1.287 3.158 3.049 3.158h.697v1.106c-1.432 0-4.004-.147-5.986-.147-2.205 0-4.779.147-6.21.147v-1.106h.698c2.02 0 3.051-.181 3.051-3.084v-19.619z"/><path d="m45.068 129.065c-1.541 0-2.902-1.323-2.902-2.903 0-1.543 1.361-2.937 2.902-2.937 1.543 0 2.939 1.394 2.939 2.937 0 1.58-1.357 2.903-2.939 2.903"/><path d="m69.195 124.551c0 6.221-.876 7.787-2.121 9.955-1.244 2.166-4.24 3.828-7.187 3.828-2.305 0-4.75-.877-4.75-3.092 0-1.382 1.016-2.072 1.938-2.027.737 0 1.475.553 1.475 1.66 0 1.244 1.151 1.981 2.488 1.981 3.639 0 3.639-5.762 3.639-9.446v-26.545c0-3.226-1.75-3.273-4.193-3.316v-1.199c2.167.045 4.285.092 6.361.092 2.12 0 4.239-.047 6.544-.092v1.199c-2.444.043-4.194.09-4.194 3.316z"/><path d="m87.481 127.449c7.128 0 8.378-6.281 8.378-11.646 0-5.363-2.901-11.865-9.002-11.865-6.428 0-8.339 5.73-8.339 10.652 0 6.578 3.013 12.859 8.963 12.859m-.548-25.128c7.825 0 14.07 4.849 14.07 12.673 0 8.45-6.062 14.071-13.888 14.071-7.789 0-13.739-5.289-13.739-13.19 0-7.638 5.914-13.554 13.557-13.554"/><path d="m110.785 125.319c0 1.984 1.543 2.091 2.865 2.091h.701v1.106c-1.618 0-3.97-.147-5.954-.147-1.872 0-4.078.147-5.545.147v-1.106h.513c1.323 0 2.718-.183 2.718-2.091v-19.254c0-1.907-1.395-2.092-2.718-2.092h-.513v-1.104c1.467 0 3.673.149 5.545.149 1.984 0 4.336-.149 5.954-.149v1.104h-.701c-1.322 0-2.865.109-2.865 2.092v8.049h13.338v-8.049c0-1.983-1.543-2.092-2.865-2.092h-.697v-1.104c1.617 0 3.967.149 5.951.149 1.872 0 4.075-.149 5.547-.149v1.104h-.517c-1.321 0-2.716.185-2.716 2.092v19.254c0 1.908 1.395 2.091 2.716 2.091h.517v1.106c-1.472 0-3.675-.147-5.547-.147-1.984 0-4.334.147-5.951.147v-1.106h.697c1.322 0 2.865-.107 2.865-2.091v-9.149h-13.338z"/><path d="m158.946 121.276.072-.073v-13.775c0-3.016-2.093-3.455-3.198-3.455h-.806v-1.104c1.726 0 3.417.149 5.142.149 1.509 0 3.012-.149 4.521-.149v1.104h-.551c-1.544 0-3.27.293-3.27 4.668v16.713c0 1.287.037 2.572.218 3.709h-1.394l-18.921-21.084v15.135c0 3.195.624 4.296 3.454 4.296h.624v1.106c-1.579 0-3.161-.147-4.74-.147-1.653 0-3.343.147-4.995.147v-1.106h.512c2.537 0 3.308-1.724 3.308-4.664v-15.468c0-2.057-1.691-3.305-3.344-3.305h-.476v-1.104c1.394 0 2.827.149 4.224.149 1.102 0 2.168-.149 3.27-.149z"/><path d="m166.975 112.129c1.617-.293 3.784-1.322 3.784-3.123 0-1.103-.809-1.324-1.581-1.617-.77-.293-1.542-.662-1.542-2.018 0-1.582 1.214-2.502 2.683-2.502 2.13 0 3.234 1.838 3.234 3.823 0 3.49-2.979 5.693-6.063 6.539z"/><path d="m188.946 108.307c-.258-2.387-1.803-4.664-4.339-4.664-2.9 0-4.514 1.728-4.514 4.629 0 6.099 11.018 4.261 11.018 13.078 0 5.072-4.186 7.715-8.888 7.715-2.057 0-4.041-.735-5.842-1.655-.185-1.871-.442-3.709-.625-5.58l1.029-.222c.44 3.123 2.203 5.843 5.693 5.843 2.499 0 4.518-1.582 4.518-4.189 0-6.504-10.8-4.482-10.8-13.338 0-4.775 3.38-7.603 8.12-7.603 1.03 0 4.153.402 5.289.548 0 1.729.149 3.493.37 5.256z"/><path d="m66.108 39.928v2.14h-.595v-1.394h-1.084v1.317h-.595v-1.317h-1.202v1.453h-.594v-2.199z"/><path d="m62.61 43.776v.25c0 .838.571 1.217 1.462 1.217.893 0 1.465-.379 1.465-1.217v-.25zm3.498-.748v1.063c0 1.271-.688 1.947-2.036 1.947-1.37 0-2.034-.817-2.034-1.947v-1.063z"/><path d="m66.108 47.553h-2.636c-.676 0-.898.205-.898.641 0 .426.222.635.898.635h2.636v.748h-2.636c-1.073 0-1.493-.619-1.493-1.383 0-.77.42-1.387 1.493-1.387h2.636z"/><path d="m62.198 53.229c-.087-.148-.164-.51-.176-.875-.044-1.236.836-1.902 2.025-1.943 1.188-.043 2.113.56 2.156 1.771.015.414-.083.754-.138.91l-.67-.017c.071-.154.207-.399.194-.779-.022-.616-.46-1.131-1.515-1.094-1.053.037-1.455.582-1.432 1.199.013.361.109.598.236.762z"/><path d="m64.024 55.835 1.806-.782-.001-.013-1.963-.28zm-.543.236-.203-1.385-1.01-.144-.109-.741 4.225.764.117.807-3.836 1.886-.111-.761z"/><path d="m66.335 57.602-.218-.885.578-.14.612 2.484-.578.143-.216-.879-3.373.832-.179-.725z"/><path d="m67.522 59.684.233.709-3.862 1.278-.236-.707z"/><path d="m65.371 64.051c.189.434.711.62 1.735.17 1.027-.449 1.245-.955 1.053-1.39-.189-.432-.709-.617-1.734-.168-1.026.447-1.243.957-1.054 1.388zm3.313-1.449c.338.776.072 1.739-1.269 2.324-1.341.588-2.228.129-2.568-.646-.338-.773-.073-1.736 1.269-2.324 1.341-.586 2.229-.127 2.568.646z"/><path d="m68.56 70.548c-.151-.081-.405-.346-.606-.653-.681-1.033-.277-2.06.716-2.717.991-.654 2.097-.623 2.765.391.228.346.322.688.357.846l-.582.334c-.02-.166-.031-.446-.24-.762-.34-.516-.983-.727-1.864-.145-.88.581-.939 1.254-.598 1.772.2.301.403.451.598.523z"/><path d="m72.31 68.921.474.576-1.276 1.056.768.928 1.276-1.053.476.575-3.138 2.591-.475-.574 1.384-1.144-.768-.93-1.386 1.145-.474-.577z"/><path d="m74.134 73.653c.282.279.617.322.908.027.328-.33.235-.586-.063-.881l-.214-.212-.847.851zm.502-1.998.903.893c.514.509.632 1.085.106 1.617-.373.377-.859.394-1.231.125l-.013.013c.092.123.163.291-.013.651l-.713 1.476-.564-.556.644-1.223c.156-.301.094-.51-.102-.703l-.12-.119-1.231 1.242-.532-.525z"/><path d="m77.091 73.999.566.486-2.658 3.082-.564-.486z"/><path d="m76.388 77.708c.06.164.22.48.536.72.26.2.601.231.848-.093.176-.233.12-.436-.048-.813l-.174-.396c-.186-.42-.201-.836.117-1.252.441-.582 1.148-.52 1.691-.106.343.26.518.533.588.631l-.404.475c-.102-.164-.228-.391-.502-.602-.297-.226-.57-.183-.74.039-.182.242-.092.457.012.697l.199.461c.218.502.244.844-.102 1.299-.5.658-1.21.617-1.828.149-.323-.248-.539-.485-.626-.705z"/><path d="m81.021 77.751-.758-.504.33-.496 2.131 1.42-.33.494-.752-.5-1.926 2.894-.622-.414z"/><path d="m83.323 78.557.627.405-2.209 3.418-.627-.403z"/><path d="m85.065 82.651.577-1.883-.011-.006-1.485 1.313zm-.17.566-1.186-.744-.767.676-.632-.396 3.318-2.723.691.434-1.051 4.144-.652-.409z"/><path d="m87.944 81.477.757.457-.497 3.433.01.006 1.654-2.732.579.35-2.108 3.482-.764-.465.492-3.408-.01-.006-1.643 2.711-.578-.35z"/><path d="m91.665 86.627.516-1.9-.01-.004-1.443 1.357zm-.153.572-1.208-.707-.746.7-.645-.377 3.233-2.824.707.412-.925 4.177-.664-.39z"/><path d="m100.592 86.043-1.423-1.381-.01.008.494 1.934zm.429.412-1.21.721.253.996-.647.387-.913-4.223.706-.42 3.228 2.844-.666.397z"/><path d="m101.364 82.792.76-.469 2.848 2.023.009-.006-1.687-2.736.58-.359 2.15 3.486-.765.472-2.83-2.003-.009.004 1.675 2.718-.578.357z"/><path d="m105.339 80.262.634-.402 2.198 3.457-.635.404z"/><path d="m110.464 77.696-.01.01 1.03 3.412-.448.297-2.7-2.307-.013.006 1.887 2.848-.568.377-2.261-3.418.934-.618 2.394 2.082.009-.005-.968-3.028.905-.599 2.26 3.418-.567.375z"/><path d="m114.763 76.815-1.607-1.162-.01.01.767 1.84zm.484.348-1.095.886.392.952-.582.472-1.512-4.049.639-.515 3.605 2.349-.603.489z"/><path d="m114.687 73.532 1.527-1.524.422.426-.994.989.771.775.94-.938.423.424-.939.938.853.857 1.036-1.033.421.424-1.566 1.562z"/><path d="m120.823 69.432c.271-.383.204-.683-.16-.941s-.666-.221-.936.164l-.163.232 1.097.776zm-2.164-.267.679-.957c.489-.692 1.128-.778 1.76-.33.631.449.765 1.084.276 1.771l-.242.344 1.306.93-.435.611z"/><path d="m120.655 66.221 1.041-1.884.524.291-.678 1.226.957.528.639-1.161.524.287-.641 1.163 1.059.584.705-1.278.525.289-1.07 1.938z"/><path d="m124.28 62.932c.149-.369.061-.695-.327-.853-.432-.178-.636.006-.794.398l-.115.281 1.121.458zm-2.052.309.482-1.186c.273-.673.765-1.007 1.461-.724.494.201.699.644.592 1.095l.016.006c.079-.133.208-.261.611-.238l1.647.094-.299.738-1.389-.127c-.335-.027-.506.111-.61.367l-.064.158 1.63.663-.283.695z"/><path d="m123.556 59.721.55-1.996.577.158-.35 1.274 1.074.297.334-1.217.578.158-.335 1.217 1.72.475-.2.724z"/><path d="m124.341 56.454.342-2.125.59.094-.223 1.384 1.078.172.211-1.308.59.097-.211 1.309 1.194.191.234-1.441.587.094-.35 2.185z"/><path d="m128.938 50.628c.075.158.122.523.107.892-.058 1.244-.997 1.84-2.192 1.787-1.195-.054-2.076-.736-2.019-1.953.019-.418.145-.752.21-.902l.673.07c-.083.151-.241.383-.259.766-.025.621.371 1.172 1.431 1.22 1.063.049 1.508-.464 1.536-1.085.017-.366-.06-.608-.176-.784z"/><path d="m125.501 48.399v.916h-.6v-2.576h.6v.91h3.496v.75z"/><path d="m124.985 45.327h4.096v-.75h-4.096z"/><path d="m128.481 41.471c0-.474-.404-.855-1.531-.855-1.124 0-1.532.381-1.532.855 0 .475.408.856 1.532.856 1.127 0 1.531-.381 1.531-.856zm-3.636 0c0-.849.633-1.631 2.105-1.631 1.474 0 2.108.782 2.108 1.631 0 .852-.634 1.631-2.108 1.631-1.472 0-2.105-.779-2.105-1.631z"/></g><path d="m106.447 12.808c.235-.928.376-1.896.391-2.901-1.07-.292-2.073-.708-2.986-1.226-.56-.259-1.805-1.228-1.94-1.392l-.002-.203v-4.371h-4.275c-.134-1.113-1.02-1.976-2.103-1.976s-1.971.863-2.103 1.976h-4.32l.023 4.65s-.713.559-1.068.793c-.057.042-.422.277-.487.311-1.022.624-2.164 1.119-3.393 1.457.014.998.16 1.959.395 2.882h-14.338v18.022h-.001v19.463c0 9.261 4.547 17.316 12.86 22.877 5.725 3.83 12.46 7.465 12.46 7.465s6.744-3.715 12.349-7.467c8.317-5.559 12.861-13.614 12.861-22.875v-37.485z" fill="#fffffe"/><path d="m93.276 36.421c-.034-.01-.195-.038-.195-.038-.02-.002-8.971-.013-8.971-.013v-5.54h-13.87v19.463c0 9.261 4.547 17.316 12.86 22.877 5.725 3.83 11.586 7.056 11.586 7.056v-42.338c-.085-.742-.681-1.351-1.41-1.467" fill="#cf0a2c"/><path d="m106.686 30.83v5.54h-8.603c-.897 0-1.613.712-1.642 1.602-.003.002-.011.004-.014.008v42.252s5.877-3.312 11.482-7.064c8.317-5.559 12.861-13.614 12.861-22.875v-19.463z" fill="#cf0a2c"/><path d="m108.829 46.098c0-2.161 1.751-3.913 3.913-3.913 2.161 0 3.915 1.752 3.915 3.913 0 .812-.099 1.281-.666 2.189-.569.909-7.134 9.777-7.134 9.777s-6.586-8.962-7.123-9.777c-.537-.814-.669-1.377-.669-2.189 0-2.161 1.754-3.913 3.916-3.913s3.913 1.752 3.913 3.913" fill="#fffffe"/><path d="m86.174 48.502c-.905 0-1.69.336-2.282.925-.028.033-.059.061-.095.083-.006.005-.014.011-.017.017-.002 0 0-.004-.002-.004-.042.018-.086.033-.136.033-.174 0-.319-.144-.319-.319 0-.084.034-.163.092-.22 0 0-.002 0-.002-.002.002 0 .005 0 .005-.002 0 0 0-.002.001-.002.706-.572 1.172-1.529 1.172-2.615 0-.393-.06-.538-.171-.884-.385-1.203-2.527-3.426-2.527-3.426s-.009.009-.015.015c-.007-.006-.014-.015-.014-.015s-2.144 2.223-2.528 3.426c-.11.346-.171.491-.171.884 0 1.086.464 2.043 1.173 2.615l.001.002.003.002v.002c.054.057.089.136.089.22 0 .175-.141.319-.318.319-.048 0-.093-.015-.136-.033v.004c-.005-.006-.011-.012-.018-.017-.037-.022-.068-.05-.096-.083-.592-.589-1.375-.925-2.281-.925-1.821 0-3.296 1.474-3.296 3.295 0 1.431.919 2.635 2.192 3.091-.222-.369-.359-.798-.359-1.26 0-1.347 1.089-2.437 2.434-2.437.724 0 1.367.317 1.812.816.429.563.577 1.163.612 1.963h-2.186c-.381 0-.69.311-.69.694 0 .381.309.691.69.691h2.076c-.166.767-.502 1.468-.986 2.047h.976c-.064.145-.102.3-.102.468 0 .622.504 1.126 1.127 1.126.621 0 1.126-.504 1.126-1.126 0-.168-.037-.323-.104-.468h.969c-.482-.579-.82-1.28-.984-2.047h2.026c.384 0 .694-.31.694-.691 0-.383-.31-.694-.694-.694h-2.136c.034-.8.181-1.4.612-1.963.443-.499 1.089-.816 1.811-.816 1.346 0 2.436 1.09 2.436 2.437 0 .462-.139.891-.362 1.26 1.275-.456 2.191-1.66 2.191-3.091 0-1.821-1.473-3.295-3.293-3.295" fill="#fffffe"/><path d="m106.447 12.808c.233-.928.373-1.896.388-2.901-1.067-.292-2.073-.708-2.985-1.226-.559-.259-1.805-1.228-1.94-1.392l-.002-.203v-4.371h-4.275c-.133-1.113-1.019-1.976-2.102-1.976-1.084 0-1.972.863-2.104 1.976h-4.319l.022 4.65s-.713.559-1.068.793c-.056.042-.421.277-.486.311-1.022.624-2.165 1.119-3.394 1.457.015.998.16 1.959.396 2.882h-14.337v16.346h13.87v-5.766h9.116l.226.041c.704.069 1.41.357 2.114 1.016.704-.659 1.411-.947 2.118-1.016l.221-.041h8.78v5.766h14.084v-16.346z" fill="#0f171f"/><path d="m95.519 4.191c-.199 5.79-.476 11.582-.82 17.367.259.02.519.039.784.039.317 0 .628-.019.939-.045-.369-5.785-.669-11.573-.876-17.361z" fill="#fffffe"/><path d="m93.995 5.517c-1.004 4.678-2.773 9.323-5.379 13.69.403.316.828.605 1.273.865 2.088-4.734 3.437-9.639 4.136-14.551-.008 0-.018-.002-.03-.004" fill="#fffffe"/><path d="m92.063 6.211c-1.605 2.961-3.958 5.741-7.014 8.023.176.496.38.977.623 1.436 2.921-2.82 5.059-6.075 6.419-9.448-.01-.004-.02-.009-.028-.011" fill="#fffffe"/><path d="m98.986 6.211c-.011.002-.02.007-.028.011 1.348 3.35 3.469 6.588 6.362 9.395.239-.461.443-.941.615-1.436-3.028-2.269-5.359-5.03-6.949-7.97" fill="#fffffe"/><path d="m97.022 5.521c.698 4.899 2.04 9.793 4.117 14.514.443-.264.868-.552 1.267-.871-2.595-4.354-4.351-8.984-5.356-13.647-.011.004-.017.004-.028.004" fill="#fffffe"/><path d="m88.61 19.217c.001-.002.004-.008.006-.01-.037-.029-.077-.057-.114-.086.037.029.071.064.108.096" fill="#0c0f18"/><path d="m85.669 15.674c.006.011.014.021.019.033-.005-.012-.01-.026-.016-.037-.001.002-.001.004-.003.004" fill="#0c0f18"/><g fill="#cf0a2c"><path d="m89.874 25.451h2.175v.629h-1.435v.984h1.314v.631h-1.314v1.121h1.447v.629h-2.187z"/><path d="m95.279 29.388c-.268.069-.559.128-.84.128-1.191 0-2.02-.647-2.02-1.999 0-1.368.769-2.136 2.02-2.136.245 0 .566.052.835.168l-.052.673c-.28-.171-.533-.21-.798-.21-.76 0-1.236.628-1.236 1.447 0 .816.465 1.426 1.251 1.426.292 0 .635-.069.81-.165z"/><path d="m98.505 29.388c-.27.069-.559.128-.84.128-1.192 0-2.02-.647-2.02-1.999 0-1.368.768-2.136 2.02-2.136.241 0 .566.052.834.168l-.053.673c-.279-.171-.533-.21-.798-.21-.758 0-1.235.628-1.235 1.447 0 .816.465 1.426 1.252 1.426.292 0 .633-.069.809-.165z"/><path d="m99.048 25.451h2.175v.629h-1.437v.984h1.315v.631h-1.315v1.121h1.446v.629h-2.184z"/><path d="m88.513 31.209h-.01l-.533 1.648h1.077zm-.407-.803h.835l1.448 3.998h-.82l-.316-.918h-1.493l-.324.918h-.765z"/><path d="m93.529 31.179c-.285-.144-.655-.213-.951-.213-.86 0-1.335.63-1.335 1.45 0 .813.464 1.425 1.249 1.425.203 0 .361-.021.487-.056v-1.043h-.781v-.63h1.489v2.153c-.391.116-.797.205-1.195.205-1.191 0-2.02-.646-2.02-1.997 0-1.368.771-2.133 2.02-2.133.43 0 .768.06 1.083.164z"/><path d="m94.424 30.406h.908l1.405 2.988h.01v-2.988h.709v3.998h-.904l-1.409-2.991h-.011v2.991h-.708z"/><path d="m98.14 30.406h.74v2.307c0 .681.2 1.128.766 1.128.564 0 .765-.447.765-1.128v-2.307h.739v2.554c0 1.07-.559 1.51-1.504 1.51-.948 0-1.506-.44-1.506-1.51z"/><path d="m103.851 31.138c-.231-.107-.491-.172-.748-.172-.254 0-.581.12-.581.556 0 .694 1.615.402 1.615 1.741 0 .875-.639 1.207-1.383 1.207-.4 0-.581-.056-.945-.152l.067-.723c.256.149.544.246.835.246.28 0 .655-.154.655-.514 0-.763-1.615-.448-1.615-1.77 0-.893.64-1.217 1.288-1.217.316 0 .612.045.882.141z"/></g></g></svg>